<svg xmlns="http://www.w3.org/2000/svg" viewBox="0 0 613 145" fill="#EE0000">
  <path d="M127.467,104.777c-11.344,6.094-27.5,10.281-40.938,10.281-26.156,0-42-16.25-42-43.75,0-34.062,26.312-59.531,59.219-59.531,16.406,0,27.5,6.875,27.5,18.281,0,7.188-5.469,12.969-12.969,12.969-5.156,0-8.75-2.656-11.406-7.5-2.5-4.531-4.844-6.875-9.062-6.875-9.531,0-19.531,12.188-19.531,30.156,0,16.562,7.5,25.469,21.25,25.469,7.344,0,14.062-2.5,19.531-7.188L127.467,104.777z"/>
  <path d="M212.561,86.34c0,17.969-11.562,28.719-31.406,28.719-11.094,0-19.531-2.969-27.812-9.844l8.281-11.094c5.625,4.688,11.406,7.031,18.594,7.031,8.594,0,13.906-4.375,13.906-11.094,0-6.719-3.906-10-16.719-13.594-17.656-4.844-26.562-11.719-26.562-26.25,0-15.469,12.031-26.094,30-26.094,10.469,0,18.594,2.656,25.469,8.281l-7.656,11.094c-5.156-4.062-10.469-6.406-17.031-6.406-7.5,0-12.188,3.906-12.188,9.688,0,6.406,4.531,9.219,17.031,12.656C204.436,64.59,212.561,72.121,212.561,86.34z"/>
</svg>
